<svg xmlns="http://www.w3.org/2000/svg" width="192" height="192" viewBox="0 0 192 192">
  <rect width="192" height="192" rx="36" fill="#111827"/>
  <rect x="54" y="88" width="84" height="16" fill="#ef4444"/>
  <rect x="60" y="84" width="10" height="7" rx="2" fill="#111827"/>
  <rect x="76" y="84" width="10" height="7" rx="2" fill="#111827"/>
  <rect x="92" y="84" width="10" height="7" rx="2" fill="#111827"/>
  <rect x="108" y="84" width="10" height="7" rx="2" fill="#111827"/>
  <rect x="124" y="84" width="10" height="7" rx="2" fill="#111827"/>
  <rect x="60" y="101" width="10" height="7" rx="2" fill="#111827"/>
  <rect x="76" y="101" width="10" height="7" rx="2" fill="#111827"/>
  <rect x="92" y="101" width="10" height="7" rx="2" fill="#111827"/>
  <rect x="108" y="101" width="10" height="7" rx="2" fill="#111827"/>
  <rect x="124" y="101" width="10" height="7" rx="2" fill="#111827"/>
  <circle cx="68" cy="96" r="40" fill="#ef4444"/>
  <circle cx="68" cy="96" r="14" fill="#111827"/>
  <line x1="68" y1="82" x2="68" y2="67" stroke="#111827" stroke-width="5" stroke-linecap="round"/>
  <line x1="68" y1="110" x2="68" y2="125" stroke="#111827" stroke-width="5" stroke-linecap="round"/>
  <line x1="54" y1="88" x2="41" y2="80" stroke="#111827" stroke-width="5" stroke-linecap="round"/>
  <line x1="82" y1="88" x2="95" y2="80" stroke="#111827" stroke-width="5" stroke-linecap="round"/>
  <line x1="54" y1="104" x2="41" y2="112" stroke="#111827" stroke-width="5" stroke-linecap="round"/>
  <line x1="82" y1="104" x2="95" y2="112" stroke="#111827" stroke-width="5" stroke-linecap="round"/>
  <circle cx="68" cy="64" r="7" fill="#111827"/>
  <circle cx="68" cy="128" r="7" fill="#111827"/>
  <circle cx="40" cy="79" r="7" fill="#111827"/>
  <circle cx="40" cy="113" r="7" fill="#111827"/>
  <circle cx="96" cy="79" r="7" fill="#111827"/>
  <circle cx="96" cy="113" r="7" fill="#111827"/>
  <circle cx="68" cy="96" r="5" fill="#ef4444"/>
  <circle cx="124" cy="96" r="40" fill="#ef4444"/>
  <circle cx="124" cy="96" r="14" fill="#111827"/>
  <line x1="124" y1="82" x2="124" y2="67" stroke="#111827" stroke-width="5" stroke-linecap="round"/>
  <line x1="124" y1="110" x2="124" y2="125" stroke="#111827" stroke-width="5" stroke-linecap="round"/>
  <line x1="110" y1="88" x2="97" y2="80" stroke="#111827" stroke-width="5" stroke-linecap="round"/>
  <line x1="138" y1="88" x2="151" y2="80" stroke="#111827" stroke-width="5" stroke-linecap="round"/>
  <line x1="110" y1="104" x2="97" y2="112" stroke="#111827" stroke-width="5" stroke-linecap="round"/>
  <line x1="138" y1="104" x2="151" y2="112" stroke="#111827" stroke-width="5" stroke-linecap="round"/>
  <circle cx="124" cy="64" r="7" fill="#111827"/>
  <circle cx="124" cy="128" r="7" fill="#111827"/>
  <circle cx="96" cy="79" r="7" fill="#111827"/>
  <circle cx="96" cy="113" r="7" fill="#111827"/>
  <circle cx="152" cy="79" r="7" fill="#111827"/>
  <circle cx="152" cy="113" r="7" fill="#111827"/>
  <circle cx="124" cy="96" r="5" fill="#ef4444"/>
</svg>
