<svg xmlns="http://www.w3.org/2000/svg" width="512" height="512" viewBox="0 0 512 512">
  <rect width="512" height="512" rx="80" fill="#111827"/>
  <g transform="translate(256,256)">
    <polygon points="-85,26 85,26 64,154 -64,154" fill="#ef4444"/>
    <polygon points="-26,26 -5,26 -21,154 -43,154" fill="#fef2f2" opacity="0.3"/>
    <polygon points="26,26 48,26 32,154 10,154" fill="#fef2f2" opacity="0.3"/>
    <circle cx="-54" cy="-6" r="32" fill="#fef3c7"/>
    <circle cx="0" cy="-22" r="35" fill="#fef3c7"/>
    <circle cx="54" cy="-6" r="32" fill="#fef3c7"/>
    <circle cx="-27" cy="-38" r="29" fill="#fffbeb"/>
    <circle cx="27" cy="-43" r="27" fill="#fffbeb"/>
    <circle cx="-54" cy="-6" r="13" fill="#fde68a"/>
    <circle cx="0" cy="-22" r="16" fill="#fde68a"/>
    <circle cx="54" cy="-6" r="13" fill="#fde68a"/>
    <circle cx="-27" cy="-38" r="11" fill="#fde68a"/>
    <circle cx="27" cy="-43" r="11" fill="#fde68a"/>
  </g>
</svg>
